<?xml version="1.0" encoding="utf-8"?>
<!-- Generator: Adobe Illustrator 17.1.0, SVG Export Plug-In . SVG Version: 6.00 Build 0)  -->
<!DOCTYPE svg PUBLIC "-//W3C//DTD SVG 1.1//EN" "http://www.w3.org/Graphics/SVG/1.1/DTD/svg11.dtd">
<svg version="1.1" id="Layer_1" xmlns="http://www.w3.org/2000/svg" xmlns:xlink="http://www.w3.org/1999/xlink" x="0px" y="0px"
	 viewBox="0 0 612 792" enable-background="new 0 0 612 792" xml:space="preserve">
<g id="W6EeEF_1_">
	<g>
		<path fill="#FFFFFF" d="M395.2,146c59.5-17.5,108.4,7,129.4,38.5c24.5-7,49-17.5,73.4-24.5c0,28-17.5,52.5-31.5,59.5
			c24.5,7,45.5-17.5,45.5-17.5c-7,35-35,59.5-56,69.9c-7,230.8-115.4,384.7-363.7,377.7c-17.5,0,3.5,0-17.5,0
			c-14,0-150.4-14-174.9-62.9c80.4,7,139.9-14,167.9-38.5c-35-10.5-97.9-17.5-108.4-101.4c14,3.5,21,7,45.5,3.5
			c-42-28-90.9-52.5-87.4-129.4c10.5,10.5,38.5,17.5,49,17.5C42,331.3-3.5,222.9,35,170.4c66.4,62.9,132.9,122.4,258.8,129.4
			C297.3,219.4,332.2,166.9,395.2,146z"/>
	</g>
</g>
</svg>
