<?xml version="1.0" encoding="utf-8"?>
<!-- Generator: Adobe Illustrator 17.1.0, SVG Export Plug-In . SVG Version: 6.00 Build 0)  -->
<!DOCTYPE svg PUBLIC "-//W3C//DTD SVG 1.1//EN" "http://www.w3.org/Graphics/SVG/1.1/DTD/svg11.dtd">
<svg version="1.1" id="Layer_1" xmlns="http://www.w3.org/2000/svg" xmlns:xlink="http://www.w3.org/1999/xlink" x="0px" y="0px"
	 viewBox="0 0 612 792" enable-background="new 0 0 612 792" xml:space="preserve">
<path fill="#81B3D2" d="M584.8,246.9h-1H347.8c132.1-66.1,142.8-107.8,137.9-131.1c-10.7-37.9-54.4-67-95.2-51.5
	c-53.4,20.4-68,100.1-82.6,157.4c-18.5-58.3-35.9-132.1-77.7-170c-11.7-10.7-29.1-21.4-55.4-19.4c-38.9,3.9-94.2,51.5-70.9,104.9
	c21.4,51.5,92.3,84.5,139.9,109.8H27.2C11.7,246.9,0,259.5,0,274.1v108.8c0,15.5,12.6,27.2,27.2,27.2h2.9v349.7h553.7V410.1h1
	c15.5,0,27.2-12.6,27.2-27.2V275.1C612,259.5,599.4,246.9,584.8,246.9z M406.1,88.5c20.4-2.9,47.6,12.6,50.5,31.1
	c3.9,26.2-32.1,50.5-48.6,61.2c-24.3,16.5-47.6,25.3-69.9,38.9C345.8,183.7,362.3,94.4,406.1,88.5z M186.5,183.7
	c-21.4-14.6-62.2-42.7-61.2-74.8c1-35,55.4-63.1,84.5-36.9c36.9,32.1,54.4,106.9,68,159.3C246.7,215.8,217.6,204.1,186.5,183.7z
	 M243.8,731.6H58.3V411.1h185.5V731.6z M243.8,381.9H29.1V276h214.7V381.9z M341,731.6h-69V276h69V731.6z M554.7,731.6H370.1V411.1
	h185.5v320.6H554.7z M582.9,381.9H370.1V276h212.7V381.9z"/>
</svg>
